<svg xmlns="http://www.w3.org/2000/svg" width="20" height="20" fill="none"><path fill="currentColor" fill-rule="evenodd" d="M10 20c5.523 0 10-4.477 10-10S15.523 0 10 0 0 4.477 0 10s4.477 10 10 10zm.143-16.5a1.5 1.5 0 10.001 3.001 1.5 1.5 0 00-.001-3.001zm-.607 4.498c.546-.002 1.101.188 1.508.598.41.41.601.976.599 1.545v.006a3.338 3.338 0 01-.262 1.242l-.682 1.704-.133.332c-.068.17-.088.3-.088.386a.33.33 0 00.02.13.084.084 0 00.018.032c.005.005.011.01.023.014.015.005.05.015.116.016.156.002.523-.09.99-.528.36-.336.958-.424 1.39-.058.412.348.498 1.007.07 1.428-.755.742-1.606 1.153-2.453 1.157a2.165 2.165 0 01-1.556-.62c-.412-.414-.62-.984-.618-1.57a3.07 3.07 0 01.232-1.13l.237-.595.58-1.446c.09-.227.116-.395.116-.5a.369.369 0 00-.017-.13l-.001-.003a.342.342 0 00-.092-.011h-.002c-.164-.002-.576.109-1.082.59-.358.34-.958.426-1.39.06-.412-.348-.496-1.005-.071-1.426.782-.776 1.666-1.215 2.546-1.223h.002z" clip-rule="evenodd"/></svg>