<svg xmlns="http://www.w3.org/2000/svg" width="17" height="16"><g fill="none" fill-rule="evenodd"><path fill="#AA8DB2" d="M3.396 13.707a1.584 1.584 0 01-.517-1.12v-.107l.042-1.25a1.588 1.588 0 00-.503-1.215l-.914-.855a1.59 1.59 0 01-.076-2.246c.024-.026.05-.051.076-.076l.914-.854c.335-.313.519-.756.503-1.214L2.88 3.52a1.588 1.588 0 011.534-1.642h.107l1.25.042c.459.016.902-.168 1.215-.503L7.84.504a1.59 1.59 0 012.246-.076c.026.024.051.05.076.076l.854.914c.313.335.756.519 1.214.503l1.25-.042a1.588 1.588 0 011.642 1.534v.107l-.042 1.25c-.016.459.168.902.503 1.215l.914.854c.641.6.675 1.605.076 2.246-.024.026-.05.051-.076.076l-.914.854a1.587 1.587 0 00-.503 1.214l.042 1.25c.017.485-.185.925-.517 1.228A6.4 6.4 0 009 10.4a6.397 6.397 0 00-5.604 3.307zM9 4a2.4 2.4 0 10.001 4.801A2.4 2.4 0 009 4z"/><path fill="#FBEEFF" d="M14.604 13.707a1.58 1.58 0 01-1.017.414h-.107l-1.25-.042a1.588 1.588 0 00-1.215.503l-.854.914a1.59 1.59 0 01-2.246.076c-.026-.024-.051-.05-.076-.076l-.854-.914a1.587 1.587 0 00-1.214-.503l-1.25.042a1.58 1.58 0 01-1.125-.414A6.397 6.397 0 019 10.4a6.397 6.397 0 015.604 3.307zM9 4a2.4 2.4 0 11-.001 4.801A2.4 2.4 0 019 4z"/></g></svg>